<svg xmlns="http://www.w3.org/2000/svg" viewBox="0 0 48 48" id="claude"><path fill="#D97757" d="M12.1118 30.513L19.7147 26.1583L19.8425 25.7801L19.7147 25.5697H19.3442L18.0736 25.4898L13.7294 25.3699L9.96195 25.2101L6.31186 25.0104L5.39347 24.8106L4.53247 23.652L4.62118 23.074L5.39347 22.544L6.49971 22.6426L8.94441 22.813L12.6128 23.0714L15.274 23.2312L19.2163 23.6493H19.8425L19.9312 23.391L19.7173 23.2312L19.5503 23.0714L15.7541 20.4452L11.6448 17.6699L9.49232 16.0719L8.32867 15.2622L7.74163 14.5031L7.48855 12.8465L8.54522 11.6586L9.96456 11.7571L10.3272 11.8557L11.7648 12.985L14.8357 15.4114L18.8458 18.4264L19.4329 18.9244L19.6677 18.754L19.6964 18.6341L19.4329 18.184L17.2517 14.1596L14.9244 10.0659L13.8886 8.36925L13.6146 7.35183C13.5181 6.93367 13.4477 6.5821 13.4477 6.15329L14.6505 4.48598L15.3158 4.26758L16.9203 4.48598L17.5961 5.08525L18.5928 7.41309L20.2078 11.078L22.7125 16.0612L23.4456 17.5394L23.837 18.9084L23.9831 19.3266H24.2362V19.0869L24.4423 16.2796L24.8232 12.8332L25.1937 8.39855L25.3216 7.14941L25.9269 5.65256L27.1296 4.84288L28.0689 5.30099L28.8412 6.43028L28.7342 7.16006L28.275 10.207L27.3749 14.9799L26.7879 18.176H27.1296L27.521 17.7765L29.1047 15.6298L31.766 12.2339L32.94 10.8862L34.3098 9.39734L35.1891 8.68887H36.851L38.0747 10.5453L37.5268 12.4629L35.8152 14.6789L34.3959 16.5566L32.3608 19.3532L31.0902 21.5905L31.2076 21.769L31.5103 21.7397L36.1075 20.7409L38.5913 20.2828L41.5552 19.7634L42.8963 20.4026L43.0424 21.0525L42.5153 22.3816L39.3453 23.1806L35.6274 23.9397L30.0909 25.2767L30.0231 25.3273L30.1014 25.4258L32.5956 25.6656L33.6628 25.7242H36.2744L41.1377 26.0944L42.4084 26.952L43.1702 28.0014L43.0424 28.8004L41.0856 29.8178L38.4452 29.1786L32.2826 27.6818L30.1692 27.1438H29.877V27.3222L31.6381 29.0801L34.8655 32.0551L38.907 35.8905L39.1131 36.8386L38.5939 37.5871L38.046 37.5072L34.4951 34.7798L33.1253 33.552L30.0231 30.8859H29.817V31.1655L30.5319 32.2336L34.3072 38.0265L34.5029 39.803L34.2289 40.381L33.2505 40.7299L32.1756 40.5301L29.9657 37.3633L27.6854 33.797L25.846 30.6009L25.6216 30.7314L24.5362 42.6662L24.0275 43.2761L22.8534 43.7342L21.875 42.9752L21.3558 41.7473L21.875 39.321L22.5011 36.1541L23.0099 33.6372L23.4691 30.5103L23.7431 29.4716L23.7248 29.4023L23.5004 29.4316L21.1914 32.6677L17.6796 37.5125L14.9009 40.5488L14.2356 40.8178L13.0824 40.2079L13.1894 39.1185L13.8338 38.149L17.6796 33.1551L19.999 30.0602L21.4967 28.2731L21.4862 28.0147H21.3975L11.183 34.7851L9.36447 35.0248L8.58175 34.2764L8.67829 33.0486L9.04877 32.6491L12.1197 30.4917L12.1092 30.5023L12.1118 30.513Z"></path></svg>